# xmcd
#
# Track frame offsets:
#	150
#	6775
#	26700
#	46171
#	69592
#	91036
#	109925
#	128217
#	145296
#	160688
#	179418
#	203129
#	219691
#	233143
#	257590
#	264215
#	282244
#
# Disc length: 4039 seconds
#
# Revision: 1
# Processed by: cddbd v1.5.1PL0 Copyright (c) Steve Scherf et al.
# Submitted via: EasyCDDAExtractor 8.0.2.1
#
DISCID=ec0fc511
DTITLE=Tweet - Southern Hummingbird
DYEAR=2002
DGENRE=R&B
TTITLE0=So Much To Say (Intro)
TTITLE1=My Place
TTITLE2=Smoking Cigarettes
TTITLE3=Best Friend (Featuring Bilal)
TTITLE4=Always Will
TTITLE5=Boogie 2nite
TTITLE6=Oops (Oh My) (Featuring (Missy Elliott)
TTITLE7=Make Ur Move
TTITLE8=Motel
TTITLE9=Beautiful
TTITLE10=Complain
TTITLE11=Heaven
TTITLE12=Call Me
TTITLE13=Drunk
TTITLE14=Southern Hummingbird (Outro)
TTITLE15=Sexual Healing (Oops Pt. 2)
TTITLE16=Big Spender (Featuring Missy Elliott)
EXTD=
EXTT0=
EXTT1=
EXTT2=
EXTT3=
EXTT4=
EXTT5=
EXTT6=
EXTT7=
EXTT8=
EXTT9=
EXTT10=
EXTT11=
EXTT12=
EXTT13=
EXTT14=
EXTT15=
EXTT16=
PLAYORDER=
